<?xml version='1.0' encoding='utf-8'?>
<svg xmlns="http://www.w3.org/2000/svg" width="1920" height="1080" viewBox="0 0 1920 1080" data-theme="dark" data-semantic-intent="taxonomy_list" data-relation-type="taxonomy" data-site-visual-identity="heritage-amber">
  <style>
        @font-face {
            font-family: 'Inter';
            src: url('assets/fonts/Inter-Regular.ttf') format('truetype');
            font-weight: 400;
            font-style: normal;
            font-display: swap;
        }
        @font-face {
            font-family: 'Inter';
            src: url('assets/fonts/Inter-Bold.ttf') format('truetype');
            font-weight: 600;
            font-style: normal;
            font-display: swap;
        }
        @font-face {
            font-family: 'Inter';
            src: url('assets/fonts/Inter-Bold.ttf') format('truetype');
            font-weight: 800;
            font-style: normal;
            font-display: swap;
        }
        
:root {
    --background: #0f172a;
    --panel: #1e293b;
    --primary-text: #f1f5f9;
    --muted-text: #94a3b8;
    --inverse-text: #0f172a;
    --border: #334155;
    --shadow-color: #000000;
    --icon-pad-bg: #1e293b;
    --art-glow: #7dd3fc;
    --art-glow-opacity: 0.18;
    --art-sheen: #ffffff;
    --art-sheen-opacity: 0.18;
    --art-shadow: #000000;
    --art-shadow-opacity: 0.28;
    --art-muted-line: #64748b;
    --art-panel-tint: #1e293b;
    --semantic-risk: #f87171;
    --semantic-warning: #fb923c;
    --semantic-uncertain: #fbbf24;
    --semantic-evidence: #60a5fa;
    --semantic-claim: #c084fc;
    --semantic-positive: #4ade80;
    --semantic-outcome: #22d3ee;
    --font-family: 'Inter', 'Segoe UI', 'Kalam', Roboto, Helvetica, Arial, sans-serif;
    --radius-xl: 16px;
    --font-family-headline: 'Segoe UI Variable Display', 'Aptos Display', 'Inter', 'Segoe UI', Helvetica, Arial, sans-serif;
    --font-family-body: 'Segoe UI Variable Text', 'Aptos', 'Inter', 'Segoe UI', Helvetica, Arial, sans-serif;
    --font-heading: var(--font-family-headline);
    --font-body: var(--font-family-body);
    --font-size-h1: 64px;
    --font-size-h2: 42px;
    --font-size-h3: 29px;
    --font-size-body: 21px;
    --font-size-caption: 17px;
    --secondary-text: var(--muted-text);
    --panel-border: var(--border);
    --font-weight-normal: 400;
    --font-weight-medium: 500;
    --font-weight-semibold: 600;
    --font-weight-bold: 700;
    --spacing-gutter-pct: 0.07;
    --spacing-top-pct: 0.15;
    --spacing-bottom-pct: 0.07;
    --spacing-title-y-pct: 0.055;
    --accent-1: #fbbf24;
    --accent-2: #fb923c;
    --accent-3: #f59e0b;
    --accent-4: #fca5a5;
    --accent-5: #d6a66f;
    --accent-6: #7dd3fc;
}
:root[data-theme="dark"] {
    --background: #0f172a;
    --panel: #1e293b;
    --primary-text: #f1f5f9;
    --muted-text: #94a3b8;
    --inverse-text: #0f172a;
    --border: #334155;
    --shadow-color: #000000;
    --icon-pad-bg: #1e293b;
    --art-glow: #7dd3fc;
    --art-glow-opacity: 0.18;
    --art-sheen: #ffffff;
    --art-sheen-opacity: 0.18;
    --art-shadow: #000000;
    --art-shadow-opacity: 0.28;
    --art-muted-line: #64748b;
    --art-panel-tint: #1e293b;
    --semantic-risk: #f87171;
    --semantic-warning: #fb923c;
    --semantic-uncertain: #fbbf24;
    --semantic-evidence: #60a5fa;
    --semantic-claim: #c084fc;
    --semantic-positive: #4ade80;
    --semantic-outcome: #22d3ee;
    --accent-1: #fbbf24;
    --accent-2: #fb923c;
    --accent-3: #f59e0b;
    --accent-4: #fca5a5;
    --accent-5: #d6a66f;
    --accent-6: #7dd3fc;
}
:root[data-theme="light"] {
    --background: #f8fafc;
    --panel: #ffffff;
    --primary-text: #0f172a;
    --muted-text: #64748b;
    --inverse-text: #ffffff;
    --border: #e2e8f0;
    --shadow-color: #000000;
    --icon-pad-bg: #1e293b;
    --art-glow: #0891b2;
    --art-glow-opacity: 0.10;
    --art-sheen: #ffffff;
    --art-sheen-opacity: 0.34;
    --art-shadow: #0f172a;
    --art-shadow-opacity: 0.14;
    --art-muted-line: #94a3b8;
    --art-panel-tint: #f1f5f9;
    --semantic-risk: #b91c1c;
    --semantic-warning: #c2410c;
    --semantic-uncertain: #a16207;
    --semantic-evidence: #1d4ed8;
    --semantic-claim: #6d28d9;
    --semantic-positive: #15803d;
    --semantic-outcome: #0e7490;
    --accent-1: #a16207;
    --accent-2: #c2410c;
    --accent-3: #b45309;
    --accent-4: #b91c1c;
    --accent-5: #92400e;
    --accent-6: #0369a1;
}</style>
  <rect x="0" y="0" width="1.92E+3" height="1.08E+3" fill="#252a34" stroke="none" id="programmatic_background"/>
  <line id="HEADER_DECOR" x1="960.0" x2="1080.0" y1="105.0" y2="105.0" stroke="var(--accent-1)" stroke-width="6" stroke-linecap="round"/>
  <defs>
    <pattern id="svg24641b34-napkin-hatch" patternUnits="userSpaceOnUse" width="12" height="12">
      <path d="M -3 12 L 12 -3 M 0 15 L 15 0" fill="none" stroke="var(--primary-text)" stroke-width="1" stroke-opacity="0.05"/>
    </pattern>
    <filter id="svg24641b34-shadow" x="-30%" y="-30%" width="160%" height="160%">
      <feDropShadow dx="0" dy="3" stdDeviation="6" flood-color="#000000" flood-opacity="0.10"/>
      <feDropShadow dx="0" dy="8" stdDeviation="12" flood-color="#000000" flood-opacity="0.16"/>
    </filter>
    <radialGradient id="svg24641b34-universal-edge-vignette" cx="50%" cy="50%" r="72%">
      <stop offset="0%" stop-color="var(--background)" stop-opacity="0"/>
      <stop offset="72%" stop-color="var(--background)" stop-opacity="0.12"/>
      <stop offset="100%" stop-color="var(--primary-text)" stop-opacity="0.08"/>
    </radialGradient>
    <linearGradient id="svg24641b34-universal-surface-sheen" x1="0%" y1="0%" x2="100%" y2="100%">
      <stop offset="0%" stop-color="var(--art-sheen)" stop-opacity="var(--art-sheen-opacity)"/>
      <stop offset="46%" stop-color="var(--art-sheen)" stop-opacity="0.035"/>
      <stop offset="100%" stop-color="var(--art-panel-tint)" stop-opacity="0.14"/>
    </linearGradient>
    <radialGradient id="svg24641b34-universal-icon-aura" cx="50%" cy="42%" r="64%">
      <stop offset="0%" stop-color="var(--art-glow)" stop-opacity="var(--art-glow-opacity)"/>
      <stop offset="100%" stop-color="var(--background)" stop-opacity="0"/>
    </radialGradient>
    <linearGradient id="svg24641b34-card-panel-sheen" x1="0%" y1="0%" x2="100%" y2="100%">
      <stop offset="0%" stop-color="var(--inverse-text)" stop-opacity="0.20"/>
      <stop offset="48%" stop-color="var(--inverse-text)" stop-opacity="0.04"/>
      <stop offset="100%" stop-color="var(--background)" stop-opacity="0.16"/>
    </linearGradient>
    <radialGradient id="svg24641b34-card-icon-glow" cx="50%" cy="35%" r="62%">
      <stop offset="0%" stop-color="var(--inverse-text)" stop-opacity="0.22"/>
      <stop offset="100%" stop-color="var(--background)" stop-opacity="0"/>
    </radialGradient>
    <filter id="svg24641b34-text-glow" x="-20%" y="-20%" width="140%" height="140%">
      <feDropShadow dx="0" dy="0" stdDeviation="2" flood-color="#000000" flood-opacity="0.4"/>
    </filter>
    <marker id="svg24641b34-arrowhead" markerWidth="10" markerHeight="7" refX="9" refY="3.5" orient="auto" markerUnits="strokeWidth">
      <polygon points="0 0, 10 3.5, 0 7" fill="var(--muted-text)" opacity="0.6"/>
    </marker>
  </defs>
  <rect width="100%" height="100%" fill="var(--background)" id="CANVAS_BG"/>
  <rect width="100%" height="100%" fill="url(#svg24641b34-napkin-hatch)"/>
  <rect id="UNIVERSAL_EDGE_VIGNETTE" width="100%" height="100%" fill="url(#svg24641b34-universal-edge-vignette)" opacity="0.62"/>
  <text id="TITLE" x="960.0" y="59" font-size="54" font-weight="800" fill="#f1f5f9" text-anchor="middle" style="font-size: 69px; font-family: 'Segoe UI Variable Display', 'Aptos Display', 'Inter', 'Segoe UI', Helvetica, Arial, sans-serif; font-weight: 800; font-kerning: normal; font-feature-settings: &quot;kern&quot; 1, &quot;liga&quot; 1; letter-spacing:-1.2px;" data-final-font-size="69">
    <tspan x="960.0" dy="70.47px">Factors Driving Neighborhood Fear</tspan>
  </text>
  <rect id="TITLE_FRAME" x="134" y="35" width="1652" height="78" fill="none"/>
  <rect x="120" y="150" width="1680" height="830" rx="40" fill="var(--panel)" fill-opacity="0.24" stroke="var(--muted-text)" stroke-width="2" opacity="0.94"/>
  <g id="DIAGRAM_MAIN">
    <g filter="url(#svg24641b34-shadow)">
      <rect id="ITEM_1_BG" x="170" y="180" width="480" height="388" rx="28" fill="var(--panel)" fill-opacity="0.98" stroke="var(--accent-1)" stroke-width="3"/>
      <rect x="170" y="180" width="480" height="18" rx="9" fill="var(--accent-1)" fill-opacity="0.55"/>
      <rect x="295" y="216" width="230" height="30" rx="15" fill="var(--accent-1)" fill-opacity="0.10"/>
      <circle id="ITEM_1_PAD" cx="410" cy="262" r="54" fill="var(--icon-pad-bg)" opacity="1" fill-opacity="0.9" stroke-width="2" stroke="var(--accent-1)" stroke-opacity="0.72" data-badge-layer="pad"/>
      <circle id="ITEM_1_PAD_INNER" cx="410" cy="262" r="42.12" fill="var(--accent-1)" fill-opacity="0.12" stroke="none" data-badge-layer="tint"/>
      <circle cx="410" cy="262" r="42" fill="none" stroke="var(--accent-1)" stroke-width="3" stroke-dasharray="6 4" display="none" data-suppressed-decoration="redundant-badge-ring"/>
      <g id="ITEM_1_ICON" transform="translate(373, 225)" data-icon-size="74" stroke-linecap="round" stroke-linejoin="round" data-badge-treatment="clean">
        <g transform="translate(-16.82000000000001,-12.920000000000005) scale(0.19500000000000003)" vector-effect="non-scaling-stroke" fill="#f1f5f9" fill-opacity="1.0" stroke="none">
          <path fill="#f1f5f9" d="M73 41v430h174V220.8c-.3 0-.7-.1-1-.1c-21.5-2.9-39.3-2.1-48.7 1.9A71.9 71.9 0 0 1 160 233c-40.2 0-73-32.8-73-73s32.8-73 73-73c29 0 54.1 17 65.9 41.4c.2.3.6.7 1.4 1.1c2 1.1 5.4 2.7 10 4.5c2.8 1.1 6.1 2.4 9.7 3.7V41zm152.9 87.4c-.4-.5-.2-.4.7 1.5c-.2-.5-.5-1-.7-1.5M160 105c-30.4 0-55 24.6-55 55s24.6 55 55 55c10.7 0 20.5-3 28.9-8.2l.6-.4l.6-.3c15.3-6.6 35.3-6.4 58.3-3.3c23.1 3.2 49.2 9.6 75.6 17.6c52.7 16.1 106.4 38.4 137.2 53.5c9 4.5 12.2 3.2 14.2 1.5s4.1-6.8 3.6-14.2c-1.1-14.7-12-34.7-32.3-41c-78.3-24.5-135.1-42-173-54.4c-18.9-6.2-33.1-11.1-43.1-15.1c-5-2-8.9-3.7-12-5.5c-3.2-1.7-6-2.4-8.4-7.8c-8.7-19.1-27.8-32.4-50.2-32.4m0 183a32 32 0 0 1 32 32a32 32 0 0 1-11.9 24.8L192 416h-64l11.9-71.2A32 32 0 0 1 128 320a32 32 0 0 1 32-32" vector-effect="non-scaling-stroke" stroke="none"/>
        </g>
      </g>
      <text id="ITEM_1_HEAD" x="410.0" y="328.0" font-weight="800" font-size="28" fill="var(--accent-1)" text-anchor="middle" data-bg-id="ITEM_1_BG" fill-opacity="1.0" stroke="none" style="font-size: 31px; font-family: 'Segoe UI Variable Display', 'Aptos Display', 'Inter', 'Segoe UI', Helvetica, Arial, sans-serif; font-weight: 700; font-kerning: normal; font-feature-settings: &quot;kern&quot; 1, &quot;liga&quot; 1; letter-spacing:-0.4px;" data-final-font-size="31">
        <tspan x="410.0" dy="43.24px">Personal Grievances</tspan>
      </text>
      <rect id="ITEM_1_HEAD_FRAME" x="230" y="328" width="360" height="56" fill="none"/>
      <text id="ITEM_1_BODY" x="410.0" y="378.0" font-size="18" fill="var(--primary-text)" text-anchor="middle" data-bg-id="ITEM_1_BG" style="font-size: 23px; font-family: 'Segoe UI Variable Text', 'Aptos', 'Inter', 'Segoe UI', Helvetica, Arial, sans-serif; font-weight: 400; font-kerning: normal; font-feature-settings: &quot;kern&quot; 1, &quot;liga&quot; 1;" data-final-font-size="23">
        <tspan x="410.0" dy="46.51px">Longst and ing quarrels and broken</tspan>
        <tspan x="410.0" dy="26.45px">relationships between neighbors</tspan>
      </text>
      <rect id="ITEM_1_BODY_FRAME" x="195" y="378" width="430" height="156" fill="none"/>
    </g>
    <g filter="url(#svg24641b34-shadow)">
      <rect id="ITEM_2_BG" x="720" y="180" width="480" height="388" rx="28" fill="var(--panel)" fill-opacity="0.98" stroke="var(--accent-2)" stroke-width="3"/>
      <rect x="720" y="180" width="480" height="18" rx="9" fill="var(--accent-2)" fill-opacity="0.55"/>
      <rect x="845" y="216" width="230" height="30" rx="15" fill="var(--accent-2)" fill-opacity="0.10"/>
      <circle id="ITEM_2_PAD" cx="960" cy="262" r="54" fill="var(--icon-pad-bg)" opacity="1" fill-opacity="0.9" stroke-width="2" stroke="var(--accent-2)" stroke-opacity="0.72" data-badge-layer="pad"/>
      <circle id="ITEM_2_PAD_INNER" cx="960" cy="262" r="42.12" fill="var(--accent-2)" fill-opacity="0.12" stroke="none" data-badge-layer="tint"/>
      <circle cx="960" cy="262" r="42" fill="none" stroke="var(--accent-2)" stroke-width="3" stroke-dasharray="6 4" display="none" data-suppressed-decoration="redundant-badge-ring"/>
      <g id="ITEM_2_ICON" transform="translate(923, 225)" data-icon-size="74" stroke-linecap="round" stroke-linejoin="round" data-badge-treatment="clean">
        <g transform="translate(-8.689491525423733,-8.689491525423733) scale(3.8074576271186444)" vector-effect="non-scaling-stroke" stroke-width="2.60" stroke-linecap="round" stroke-linejoin="round" stroke-opacity="1.0">
          <path d="m12 8 6-3-6-3v10" vector-effect="non-scaling-stroke" fill="none" stroke="#f1f5f9"/>
          <path d="m8 11.99-5.5 3.14a1 1 0 0 0 0 1.74l8.5 4.86a2 2 0 0 0 2 0l8.5-4.86a1 1 0 0 0 0-1.74L16 12" vector-effect="non-scaling-stroke" fill="none" stroke="#f1f5f9"/>
          <path d="m6.49 12.85 11.02 6.3" vector-effect="non-scaling-stroke" fill="none" stroke="#f1f5f9"/>
          <path d="M17.51 12.85 6.5 19.15" vector-effect="non-scaling-stroke" fill="none" stroke="#f1f5f9"/>
        </g>
      </g>
      <text id="ITEM_2_HEAD" x="960.0" y="328.0" font-weight="800" font-size="28" fill="var(--accent-2)" text-anchor="middle" data-bg-id="ITEM_2_BG" fill-opacity="1.0" stroke="none" style="font-size: 31px; font-family: 'Segoe UI Variable Display', 'Aptos Display', 'Inter', 'Segoe UI', Helvetica, Arial, sans-serif; font-weight: 700; font-kerning: normal; font-feature-settings: &quot;kern&quot; 1, &quot;liga&quot; 1; letter-spacing:-0.4px;" data-final-font-size="31">
        <tspan x="960.0" dy="43.24px">Resource Competition</tspan>
      </text>
      <rect id="ITEM_2_HEAD_FRAME" x="780" y="328" width="360" height="56" fill="none"/>
      <text id="ITEM_2_BODY" x="960.0" y="378.0" font-size="18" fill="var(--primary-text)" text-anchor="middle" data-bg-id="ITEM_2_BG" style="font-size: 23px; font-family: 'Segoe UI Variable Text', 'Aptos', 'Inter', 'Segoe UI', Helvetica, Arial, sans-serif; font-weight: 400; font-kerning: normal; font-feature-settings: &quot;kern&quot; 1, &quot;liga&quot; 1;" data-final-font-size="23">
        <tspan x="960.0" dy="46.51px">Conflicts over property ownership</tspan>
        <tspan x="960.0" dy="26.45px">and village resources</tspan>
      </text>
      <rect id="ITEM_2_BODY_FRAME" x="745" y="378" width="430" height="156" fill="none"/>
    </g>
    <g filter="url(#svg24641b34-shadow)">
      <rect id="ITEM_3_BG" x="1270" y="180" width="480" height="388" rx="28" fill="var(--panel)" fill-opacity="0.98" stroke="var(--accent-3)" stroke-width="3"/>
      <rect x="1270" y="180" width="480" height="18" rx="9" fill="var(--accent-3)" fill-opacity="0.55"/>
      <rect x="1395" y="216" width="230" height="30" rx="15" fill="var(--accent-3)" fill-opacity="0.10"/>
      <circle id="ITEM_3_PAD" cx="1510" cy="262" r="54" fill="var(--icon-pad-bg)" opacity="1" fill-opacity="0.9" stroke-width="2" stroke="var(--accent-3)" stroke-opacity="0.72" data-badge-layer="pad"/>
      <circle id="ITEM_3_PAD_INNER" cx="1510" cy="262" r="42.12" fill="var(--accent-3)" fill-opacity="0.12" stroke="none" data-badge-layer="tint"/>
      <circle cx="1510" cy="262" r="42" fill="none" stroke="var(--accent-3)" stroke-width="3" stroke-dasharray="6 4" display="none" data-suppressed-decoration="redundant-badge-ring"/>
      <g id="ITEM_3_ICON" transform="translate(1473, 225)" data-icon-size="74" stroke-linecap="round" stroke-linejoin="round" data-badge-treatment="clean">
        <g transform="translate(-8.689491525423733,-8.689491525423733) scale(3.8074576271186444)" vector-effect="non-scaling-stroke" stroke-width="2.60" stroke-linecap="round" stroke-linejoin="round" stroke-opacity="1.0">
          <path d="M6 2v14a2 2 0 0 0 2 2h14" vector-effect="non-scaling-stroke" fill="none" stroke="#f1f5f9"/>
          <path d="M18 22V8a2 2 0 0 0-2-2H2" vector-effect="non-scaling-stroke" fill="none" stroke="#f1f5f9"/>
        </g>
      </g>
      <text id="ITEM_3_HEAD" x="1510.0" y="328.0" font-weight="800" font-size="28" fill="var(--accent-3)" text-anchor="middle" data-bg-id="ITEM_3_BG" fill-opacity="1.0" stroke="none" style="font-size: 31px; font-family: 'Segoe UI Variable Display', 'Aptos Display', 'Inter', 'Segoe UI', Helvetica, Arial, sans-serif; font-weight: 700; font-kerning: normal; font-feature-settings: &quot;kern&quot; 1, &quot;liga&quot; 1; letter-spacing:-0.4px;" data-final-font-size="31">
        <tspan x="1510.0" dy="43.24px">Unexplained Misfortune</tspan>
      </text>
      <rect id="ITEM_3_HEAD_FRAME" x="1330" y="328" width="360" height="56" fill="none"/>
      <text id="ITEM_3_BODY" x="1510.0" y="378.0" font-size="18" fill="var(--primary-text)" text-anchor="middle" data-bg-id="ITEM_3_BG" style="font-size: 23px; font-family: 'Segoe UI Variable Text', 'Aptos', 'Inter', 'Segoe UI', Helvetica, Arial, sans-serif; font-weight: 400; font-kerning: normal; font-feature-settings: &quot;kern&quot; 1, &quot;liga&quot; 1;" data-final-font-size="23">
        <tspan x="1510.0" dy="46.51px">Fear created by sudden illness</tspan>
        <tspan x="1510.0" dy="26.45px">or failed harvests</tspan>
      </text>
      <rect id="ITEM_3_BODY_FRAME" x="1295" y="378" width="430" height="156" fill="none"/>
    </g>
    <g filter="url(#svg24641b34-shadow)">
      <rect id="ITEM_4_BG" x="260" y="580" width="660" height="370" rx="30" fill="var(--panel)" fill-opacity="0.98" stroke="var(--accent-4)" stroke-width="3"/>
      <rect x="260" y="590" width="660" height="18" rx="9" fill="var(--accent-4)" fill-opacity="0.55"/>
      <rect x="430" y="628" width="320" height="32" rx="16" fill="var(--accent-4)" fill-opacity="0.10"/>
      <circle id="ITEM_4_PAD" cx="590" cy="684" r="54" fill="var(--icon-pad-bg)" opacity="1" fill-opacity="0.9" stroke-width="2" stroke="var(--accent-1)" stroke-opacity="0.72" data-badge-layer="pad"/>
      <circle id="ITEM_4_PAD_INNER" cx="590" cy="684" r="42.12" fill="var(--accent-1)" fill-opacity="0.12" stroke="none" data-badge-layer="tint"/>
      <circle cx="590" cy="684" r="42" fill="none" stroke="var(--accent-4)" stroke-width="3" stroke-dasharray="6 4" display="none" data-suppressed-decoration="redundant-badge-ring"/>
      <g id="ITEM_4_ICON" transform="translate(551, 645)" data-icon-size="78" stroke-linecap="round" stroke-linejoin="round" data-badge-treatment="clean">
        <g transform="translate(-8.385000000000005,-9.137142857142862) scale(3.008571428571429)">
          <path d="M19.6288 30.0005H11.7156C10.9356 30.0005 10.3036 29.3685 10.3036 28.5884V15.4698C10.3036 14.6897 10.9356 14.0577 11.7156 14.0577H19.6288C20.4089 14.0577 21.0409 14.6897 21.0409 15.4698V28.5884C21.0409 29.3685 20.4089 30.0005 19.6288 30.0005Z" fill="#FFDEA7"/>
          <path d="M16.4787 9.73157H14.866V12.1041H16.4787V9.73157Z" fill="#9B9B9B"/>
          <path d="M20.5408 11.4495H10.8045C9.80758 11.4495 9 12.2579 9 13.254V17.8972C9 18.6878 9.6336 19.3303 10.4201 19.3449C11.2318 19.3602 11.8961 18.6708 11.8961 17.8592V15.5141C11.8961 15.2624 12.1001 15.0585 12.3517 15.0585C12.6034 15.0585 15.2924 15.0585 15.2924 15.0585C15.4841 15.0585 15.6403 15.2139 15.6403 15.4065V16.1712C15.6403 16.9828 16.3047 17.6722 17.1163 17.6569C17.9036 17.6423 18.5364 16.9998 18.5364 16.2092V15.5141C18.5364 15.2624 18.7404 15.0585 18.992 15.0585C19.2437 15.0585 19.4476 15.2624 19.4476 15.5141V20.1524C19.4476 20.9641 20.112 21.6535 20.9236 21.6381C21.7109 21.6236 22.3437 20.9811 22.3437 20.1905V13.2548C22.3445 12.2579 21.537 11.4495 20.5408 11.4495Z" fill="#FFCE7C"/>
          <path d="M18.258 5.57141L16.4082 2.42119C16.078 1.8596 15.2664 1.8596 14.9362 2.42119L13.0807 5.58031C13.0565 5.61996 13.033 5.65962 13.0103 5.70008L12.9998 5.71707C12.7425 6.18479 12.6049 6.72614 12.6268 7.30229C12.6883 8.90694 14.0259 10.2089 15.6313 10.2292C17.3331 10.251 18.7193 8.87862 18.7193 7.18253C18.7193 6.59101 18.5501 6.03832 18.258 5.57141Z" fill="#FFB02E"/>
          <path d="M15.6727 9.03566C16.5911 9.03566 17.3356 8.29115 17.3356 7.37275C17.3356 6.45435 16.5911 5.70984 15.6727 5.70984C14.7543 5.70984 14.0098 6.45435 14.0098 7.37275C14.0098 8.29115 14.7543 9.03566 15.6727 9.03566Z" fill="#FCD53F"/>
        </g>
      </g>
      <text id="ITEM_4_HEAD" x="590.0" y="754.0" font-weight="800" font-size="30" fill="var(--accent-1)" text-anchor="middle" data-bg-id="ITEM_4_BG" fill-opacity="1.0" stroke="none" style="font-size: 31px; font-family: 'Segoe UI Variable Display', 'Aptos Display', 'Inter', 'Segoe UI', Helvetica, Arial, sans-serif; font-weight: 700; font-kerning: normal; font-feature-settings: &quot;kern&quot; 1, &quot;liga&quot; 1; letter-spacing:-0.4px;" data-final-font-size="31">
        <tspan x="590.0" dy="44.48px">Magic Beliefs</tspan>
      </text>
      <rect id="ITEM_4_HEAD_FRAME" x="380" y="754" width="420" height="58" fill="none"/>
      <text id="ITEM_4_BODY" x="595.0" y="798.0" font-size="18" fill="var(--primary-text)" text-anchor="middle" data-bg-id="ITEM_4_BG" style="font-size: 23px; font-family: 'Segoe UI Variable Text', 'Aptos', 'Inter', 'Segoe UI', Helvetica, Arial, sans-serif; font-weight: 400; font-kerning: normal; font-feature-settings: &quot;kern&quot; 1, &quot;liga&quot; 1;" data-final-font-size="23">
        <tspan x="595.0" dy="44.52px">Widespread conviction that harmful magic produces</tspan>
        <tspan x="595.0" dy="26.45px">physical effects</tspan>
      </text>
      <rect id="ITEM_4_BODY_FRAME" x="360" y="798" width="470" height="148" fill="none"/>
    </g>
    <g filter="url(#svg24641b34-shadow)">
      <rect id="ITEM_5_BG" x="1000" y="580" width="660" height="370" rx="30" fill="var(--panel)" fill-opacity="0.98" stroke="var(--accent-5)" stroke-width="3"/>
      <rect x="1000" y="590" width="660" height="18" rx="9" fill="var(--accent-5)" fill-opacity="0.55"/>
      <rect x="1170" y="628" width="320" height="32" rx="16" fill="var(--accent-5)" fill-opacity="0.10"/>
      <circle id="ITEM_5_PAD" cx="1330" cy="684" r="54" fill="var(--icon-pad-bg)" opacity="1" fill-opacity="0.9" stroke-width="2" stroke="var(--accent-2)" stroke-opacity="0.72" data-badge-layer="pad"/>
      <circle id="ITEM_5_PAD_INNER" cx="1330" cy="684" r="42.12" fill="var(--accent-2)" fill-opacity="0.12" stroke="none" data-badge-layer="tint"/>
      <circle cx="1330" cy="684" r="42" fill="none" stroke="var(--accent-5)" stroke-width="3" stroke-dasharray="6 4" display="none" data-suppressed-decoration="redundant-badge-ring"/>
      <g id="ITEM_5_ICON" transform="translate(1291, 645)" data-icon-size="78" stroke-linecap="round" stroke-linejoin="round" data-badge-treatment="clean">
        <g transform="translate(-8.711150442477877,-9.083893805309739) scale(2.9819469026548675)">
          <path d="M23.5103 2.01H8.60027V2H4.45026V5H6.95026V27.07C6.95026 28.69 8.27026 30.01 9.89026 30.01H25.5603C26.3303 30.01 26.9503 29.39 26.9503 28.62V5.45C26.9503 3.55 25.4103 2.01 23.5103 2.01Z" fill="#FFDEA7"/>
          <path d="M10.8603 29.99C10.8603 29.99 13.1003 29.66 13.5903 27.49C13.6603 27.19 14.0003 26.97 14.4003 26.97H29.1303C29.6503 26.97 30.0403 27.33 29.9503 27.71C29.7203 28.6 29.3503 30 25.5803 30C20.0103 30 10.8603 29.99 10.8603 29.99Z" fill="#E19747"/>
          <path d="M6.95026 5C6.95026 3.34 5.83027 2 4.45026 2C3.26026 2 2.27028 3 2.01028 4.33C1.95028 4.67 2.16026 5 2.45026 5H6.95026Z" fill="#D3883E"/>
          <path d="M10.4203 11.87C10.1441 11.87 9.92029 12.0939 9.92029 12.37C9.92029 12.6461 10.1441 12.87 10.4203 12.87H23.5003C23.7764 12.87 24.0003 12.6461 24.0003 12.37C24.0003 12.0939 23.7764 11.87 23.5003 11.87H10.4203ZM9.98029 15.33C9.98029 15.0539 10.2041 14.83 10.4803 14.83H23.5003C23.7764 14.83 24.0003 15.0539 24.0003 15.33C24.0003 15.6062 23.7764 15.83 23.5003 15.83H10.4803C10.2041 15.83 9.98029 15.6062 9.98029 15.33ZM10.4803 17.85C10.2041 17.85 9.98029 18.0738 9.98029 18.35C9.98029 18.6261 10.2041 18.85 10.4803 18.85H23.5003C23.7764 18.85 24.0003 18.6261 24.0003 18.35C24.0003 18.0738 23.7764 17.85 23.5003 17.85H10.4803ZM10.5103 20.83C10.2341 20.83 10.0103 21.0539 10.0103 21.33C10.0103 21.6062 10.2341 21.83 10.5103 21.83H18.4703C18.7464 21.83 18.9703 21.6062 18.9703 21.33C18.9703 21.0539 18.7464 20.83 18.4703 20.83H10.5103Z" fill="#D3883E"/>
        </g>
      </g>
      <text id="ITEM_5_HEAD" x="1330.0" y="754.0" font-weight="800" font-size="30" fill="var(--accent-2)" text-anchor="middle" data-bg-id="ITEM_5_BG" fill-opacity="1.0" stroke="none" style="font-size: 31px; font-family: 'Segoe UI Variable Display', 'Aptos Display', 'Inter', 'Segoe UI', Helvetica, Arial, sans-serif; font-weight: 700; font-kerning: normal; font-feature-settings: &quot;kern&quot; 1, &quot;liga&quot; 1; letter-spacing:-0.4px;" data-final-font-size="31">
        <tspan x="1330.0" dy="44.48px">Legal Institutions</tspan>
      </text>
      <rect id="ITEM_5_HEAD_FRAME" x="1120" y="754" width="420" height="58" fill="none"/>
      <text id="ITEM_5_BODY" x="1335.0" y="798.0" font-size="18" fill="var(--primary-text)" text-anchor="middle" data-bg-id="ITEM_5_BG" style="font-size: 23px; font-family: 'Segoe UI Variable Text', 'Aptos', 'Inter', 'Segoe UI', Helvetica, Arial, sans-serif; font-weight: 400; font-kerning: normal; font-feature-settings: &quot;kern&quot; 1, &quot;liga&quot; 1;" data-final-font-size="23">
        <tspan x="1335.0" dy="44.52px">Courts willing to hear cases but not</tspan>
        <tspan x="1335.0" dy="26.45px">always convicting</tspan>
      </text>
      <rect id="ITEM_5_BODY_FRAME" x="1100" y="798" width="470" height="148" fill="none"/>
    </g>
  </g>
  <text id="SOURCE_NOTE" x="134.0" y="1058.0" fill="var(--muted-text)" opacity="0.88" style="font-family: var(--font-family); font-size: 20px;">Source: Introduction</text>
</svg>
